<?xml version="1.0" standalone="no"?>
<!DOCTYPE svg PUBLIC "-//W3C//DTD SVG 20010904//EN"
 "http://www.w3.org/TR/2001/REC-SVG-20010904/DTD/svg10.dtd">
<svg version="1.0" xmlns="http://www.w3.org/2000/svg"
 width="500.000000pt" height="500.000000pt" viewBox="0 0 500.000000 500.000000"
 preserveAspectRatio="xMidYMid meet">

<g transform="translate(0.000000,500.000000) scale(0.100000,-0.100000)"
fill="#000000" stroke="none">
<path d="M2216 4445 c-588 -103 -1047 -398 -1358 -875 -155 -237 -260 -513
-298 -785 -15 -111 -16 -109 33 -122 83 -23 139 -112 123 -199 -10 -51 -69
-112 -123 -127 -50 -13 -49 -10 -29 -142 70 -454 309 -884 656 -1179 372 -318
798 -476 1283 -476 317 0 588 62 877 203 505 245 909 754 1034 1305 21 91 46
240 46 273 0 5 -8 9 -17 9 -43 1 -102 39 -127 82 -61 105 -5 232 112 254 17 3
32 10 32 14 0 35 -25 184 -46 274 -89 381 -319 766 -609 1019 -263 229 -562
377 -916 453 -111 24 -149 27 -359 30 -167 2 -258 -1 -314 -11z m524 -16 c461
-49 928 -298 1234 -659 204 -240 339 -499 416 -800 17 -67 52 -273 47 -275
-119 -45 -157 -86 -165 -179 -8 -94 40 -166 131 -195 35 -12 37 -15 32 -44 -3
-18 -10 -63 -16 -102 -61 -410 -297 -837 -619 -1120 -372 -329 -808 -495
-1295 -496 -314 0 -560 56 -841 191 -403 195 -713 502 -907 901 -93 190 -156
400 -182 605 l-7 52 36 12 c137 45 179 212 81 313 -19 20 -53 42 -75 48 -22 7
-40 17 -40 23 1 30 30 199 44 256 70 275 214 565 384 770 348 422 849 679
1382 709 133 7 213 5 360 -10z"/>
<path d="M2415 4363 c-267 -16 -501 -77 -731 -189 -423 -206 -745 -558 -924
-1008 -54 -136 -119 -419 -93 -403 5 3 15 39 23 78 97 543 475 1051 965 1296
326 163 649 230 981 203 665 -54 1225 -431 1522 -1025 73 -147 135 -331 162
-487 14 -77 35 -95 24 -20 -3 26 -19 97 -34 157 -178 694 -736 1222 -1445
1364 -88 18 -345 44 -385 39 -8 -1 -37 -3 -65 -5z"/>
<path d="M2473 4003 l-63 -4 0 -135 0 -135 87 3 c58 2 88 7 91 16 3 9 -15 12
-67 12 l-71 0 0 50 0 50 60 0 c42 0 60 4 60 13 0 8 -19 12 -62 12 l-63 0 0 45
0 45 68 3 c51 2 67 6 67 17 0 9 -9 14 -22 13 -13 -1 -51 -3 -85 -5z"/>
<path d="M2148 3983 c-35 -4 -38 -7 -38 -36 1 -49 26 -226 33 -233 3 -4 32 -3
64 1 46 6 63 13 90 40 29 29 33 39 33 85 0 67 -23 114 -65 134 -33 16 -43 17
-117 9z m103 -33 c50 -27 66 -134 26 -174 -27 -27 -96 -44 -107 -26 -4 7 -11
44 -14 84 -4 39 -10 81 -13 93 -4 17 0 22 19 26 43 8 69 7 89 -3z"/>
<path d="M2777 3958 c4 -18 16 -80 28 -138 19 -97 23 -105 44 -105 19 0 34 21
87 118 35 65 64 120 64 122 0 3 -8 5 -17 5 -13 0 -35 -33 -72 -105 -30 -57
-56 -103 -58 -101 -2 1 -13 54 -26 117 -18 88 -27 115 -40 117 -14 3 -16 -2
-10 -30z"/>
<path d="M3047 3816 c-27 -115 -28 -146 -8 -146 4 0 20 55 36 123 34 150 33
140 15 144 -12 3 -21 -25 -43 -121z"/>
<path d="M1864 3923 c-7 -2 0 -41 22 -114 l32 -110 -76 70 c-43 38 -86 78 -96
90 -21 23 -33 26 -55 12 -11 -7 -7 -31 24 -135 24 -81 43 -126 51 -126 20 0
18 14 -15 123 -16 54 -27 97 -24 97 3 0 46 -38 95 -85 84 -79 118 -99 132 -76
6 9 -61 241 -72 252 -4 4 -12 5 -18 2z"/>
<path d="M3186 3779 c-66 -83 -85 -114 -75 -120 9 -5 22 2 39 21 l25 29 55
-17 c53 -17 55 -19 60 -57 3 -25 11 -41 20 -43 13 -2 14 16 8 139 -7 133 -13
159 -38 159 -3 0 -45 -50 -94 -111z m103 -31 l1 -46 -49 16 -49 15 41 55 c39
52 42 54 48 31 4 -13 7 -45 8 -71z"/>
<path d="M1505 3798 c-38 -17 -71 -32 -73 -33 -3 -2 96 -237 103 -244 9 -8
155 62 155 75 0 18 0 18 -66 -11 -31 -14 -60 -25 -63 -25 -7 0 -41 64 -41 76
0 3 25 16 55 29 32 15 55 31 55 40 0 14 -4 13 -37 -1 -63 -27 -86 -35 -88 -32
-2 2 -10 20 -19 41 l-15 38 59 26 c33 14 60 32 60 39 0 19 -5 18 -85 -18z"/>
<path d="M3544 3678 c-22 -49 -49 -97 -61 -105 -31 -21 -62 -8 -79 33 -16 39
-34 45 -34 10 0 -55 67 -98 119 -76 32 13 43 30 87 132 40 93 38 84 20 91 -10
4 -25 -21 -52 -85z"/>
<path d="M1334 3716 c-5 -12 17 -160 33 -226 6 -23 3 -22 -38 14 -24 21 -67
58 -96 83 -38 32 -56 42 -67 36 -12 -7 7 -28 90 -98 58 -50 109 -91 112 -92 4
-2 13 1 21 6 15 10 13 38 -20 229 -11 59 -24 78 -35 48z"/>
<path d="M3672 3652 c-17 -31 -47 -84 -66 -118 l-35 -60 73 -42 c81 -46 86
-48 86 -29 0 8 -22 26 -50 41 -27 15 -52 31 -55 36 -6 10 19 65 34 75 5 3 33
-8 61 -25 58 -34 60 -35 60 -16 0 8 -21 26 -47 42 -27 15 -50 28 -52 30 -7 6
33 74 43 74 5 0 32 -14 62 -30 35 -21 55 -27 59 -19 9 14 3 19 -75 62 l-66 36
-32 -57z"/>
<path d="M1099 3278 c-1 -103 -39 -145 -139 -156 l-65 -8 63 -7 c64 -7 106
-27 123 -58 5 -10 12 -45 16 -79 7 -70 23 -81 23 -15 0 57 21 109 53 129 13 9
51 20 83 24 l59 8 -58 6 c-32 4 -70 14 -84 23 -32 21 -53 72 -53 130 0 25 -4
45 -10 45 -5 0 -10 -19 -11 -42z m87 -158 c13 -1 7 -7 -18 -20 -20 -11 -39
-29 -43 -40 -8 -26 -22 -26 -30 1 -4 11 -22 27 -41 36 l-34 16 30 18 c16 10
35 27 41 38 12 18 14 17 44 -15 18 -19 41 -34 51 -34z"/>
<path d="M3843 3249 c-7 -39 -19 -79 -29 -90 -20 -22 -72 -38 -129 -40 -38 -1
-37 -2 13 -9 99 -15 142 -49 142 -113 0 -41 12 -87 21 -81 5 3 9 26 9 51 0 54
23 106 53 122 12 6 49 15 82 20 43 6 50 9 25 10 -106 4 -152 42 -158 131 -2
33 -8 62 -12 65 -3 2 -11 -28 -17 -66z m88 -129 c8 0 0 -9 -18 -20 -17 -10
-37 -28 -43 -40 -11 -20 -11 -20 -36 9 -14 17 -34 33 -45 36 -20 7 -19 8 9 25
17 11 36 28 42 40 11 20 12 19 44 -15 18 -19 40 -35 47 -35z"/>
<path d="M1482 3133 c-2 -21 1 -24 9 -16 13 13 34 5 67 -23 9 -8 56 -42 104
-77 61 -45 84 -67 77 -74 -8 -8 0 -19 25 -38 29 -22 34 -30 25 -41 -12 -15 -8
-17 31 -15 16 1 58 -21 120 -65 52 -36 97 -68 99 -70 2 -2 -2 -10 -9 -19 -11
-13 -7 -15 24 -15 38 0 117 -45 144 -81 7 -10 20 -25 29 -34 9 -10 12 -20 7
-25 -8 -8 -332 -90 -356 -90 -3 0 -45 63 -93 140 -48 77 -89 140 -92 140 -2 0
-24 -5 -49 -11 l-44 -11 -1 -92 c-1 -50 -4 -121 -8 -158 l-6 -67 -145 70
c-118 57 -152 69 -185 67 l-40 -3 143 -99 142 -100 -25 -26 c-25 -27 -31 -45
-17 -54 4 -2 50 -12 102 -21 90 -16 98 -19 162 -71 49 -40 75 -54 99 -54 34 0
33 -3 13 75 -5 19 0 20 178 21 141 0 200 5 258 19 57 13 107 17 208 15 121 -2
137 -4 178 -27 35 -20 43 -29 39 -44 -6 -17 -3 -19 22 -14 15 4 33 8 40 10 7
2 26 -12 42 -32 29 -35 30 -38 13 -56 -16 -19 -16 -19 14 -13 28 6 35 3 63
-32 20 -26 29 -46 25 -57 -6 -15 -1 -16 38 -10 43 7 45 6 81 -38 20 -25 37
-52 37 -61 0 -12 7 -11 35 9 20 13 41 25 48 28 9 3 6 21 -12 68 -37 100 -37
100 44 120 91 23 122 65 95 129 -16 38 -41 44 -145 36 l-82 -6 -21 50 -21 50
42 24 c26 15 121 42 247 71 230 54 355 94 418 137 91 62 91 110 -1 154 -28 14
-69 35 -90 46 -89 47 -201 37 -600 -54 l-267 -62 -16 22 c-12 18 -25 22 -71
22 -31 0 -84 -5 -119 -11 -60 -10 -63 -10 -125 24 -73 39 -223 118 -454 237
-88 46 -200 106 -248 133 -60 34 -110 55 -155 63 -89 18 -87 18 -90 -13z"/>
<path d="M660 2223 c0 -12 7 -55 15 -95 117 -556 467 -1020 967 -1282 376
-198 822 -258 1248 -170 689 143 1243 673 1420 1359 35 136 46 205 32 205 -5
0 -15 -30 -22 -67 -47 -267 -176 -564 -338 -778 -295 -389 -727 -646 -1210
-720 -115 -18 -404 -21 -512 -5 -561 82 -1039 395 -1333 872 -104 168 -198
409 -232 594 -16 85 -35 133 -35 87z"/>
<path d="M2113 1591 c-72 -34 -101 -113 -66 -180 28 -53 65 -75 127 -75 84 0
146 57 146 134 0 101 -111 166 -207 121z m71 -30 c21 -23 46 -103 46 -146 0
-69 -55 -67 -83 2 -44 111 -19 206 37 144z"/>
<path d="M3096 1600 c-41 -13 -66 -39 -66 -70 0 -32 24 -55 99 -95 62 -33 80
-68 41 -80 -27 -8 -70 19 -70 44 0 44 -72 57 -78 14 -7 -48 82 -91 167 -79 55
8 89 29 97 61 9 37 -16 68 -90 109 -74 41 -83 51 -66 71 20 24 38 17 65 -25
28 -44 60 -53 70 -19 9 29 -21 58 -71 69 -46 11 -60 11 -98 0z"/>
<path d="M1724 1586 c-9 -22 0 -91 11 -89 6 1 14 17 18 37 8 34 30 52 48 40
13 -8 11 -188 -2 -201 -21 -21 2 -33 60 -33 32 0 60 3 64 6 3 4 0 19 -8 35
-19 37 -20 158 -1 184 19 26 41 7 50 -40 10 -53 36 -39 36 20 0 54 -2 55 -141
55 -102 0 -131 -3 -135 -14z"/>
<path d="M2370 1590 c-12 -7 -12 -12 -2 -22 7 -7 12 -39 12 -77 0 -91 22 -132
78 -150 49 -15 100 -9 133 18 20 16 24 31 28 108 4 50 12 97 18 105 17 20 7
28 -33 28 -41 0 -48 -10 -29 -46 17 -33 19 -81 5 -138 -12 -56 -51 -74 -84
-40 -19 19 -23 173 -5 191 6 6 8 16 5 22 -9 13 -105 14 -126 1z"/>
<path d="M2700 1590 c-12 -7 -12 -12 -2 -22 15 -15 17 -179 1 -195 -21 -21 2
-33 61 -33 59 0 82 12 61 33 -13 13 -15 57 -3 57 16 0 32 -25 32 -51 0 -31 15
-39 76 -39 57 0 64 17 24 59 -36 39 -36 42 -10 66 41 37 21 94 -40 119 -44 18
-175 22 -200 6z m154 -26 c19 -18 21 -75 4 -92 -7 -7 -20 -12 -30 -12 -15 0
-18 9 -18 53 0 69 12 83 44 51z"/>
<path d="M494 2610 c-39 -15 -64 -59 -64 -109 0 -74 48 -121 126 -121 28 0 44
8 70 34 30 30 34 40 34 86 0 46 -4 56 -34 86 -27 27 -42 34 -72 33 -22 0 -49
-4 -60 -9z"/>
<path d="M4413 2610 c-13 -5 -32 -24 -43 -42 -51 -85 4 -188 101 -188 22 0 41
10 65 34 29 29 34 41 34 80 0 25 -5 56 -11 69 -21 47 -90 69 -146 47z"/>
</g>
</svg>
