<?xml version="1.0" standalone="no"?>
<!DOCTYPE svg PUBLIC "-//W3C//DTD SVG 20010904//EN"
 "http://www.w3.org/TR/2001/REC-SVG-20010904/DTD/svg10.dtd">
<svg version="1.0" xmlns="http://www.w3.org/2000/svg"
 width="500.000000pt" height="500.000000pt" viewBox="0 0 500.000000 500.000000"
 preserveAspectRatio="xMidYMid meet">

<g transform="translate(0.000000,500.000000) scale(0.100000,-0.100000)"
fill="#000000" stroke="none">
<path d="M0 2500 l0 -2500 2500 0 2500 0 0 2500 0 2500 -2500 0 -2500 0 0
-2500z m2815 1945 c353 -64 627 -183 890 -384 85 -64 256 -232 328 -321 218
-271 375 -628 418 -956 14 -103 10 -124 -24 -124 -57 0 -137 -93 -137 -160 0
-36 40 -110 71 -133 15 -10 42 -22 60 -26 l34 -7 -2 -67 c0 -37 -11 -113 -23
-169 -146 -689 -640 -1243 -1302 -1463 -224 -74 -309 -88 -573 -93 -249 -5
-346 4 -505 43 -308 77 -566 205 -790 391 -100 83 -263 251 -333 345 -198 263
-339 611 -374 921 -10 82 -5 98 29 98 33 0 77 29 103 67 35 53 35 133 0 186
-26 38 -70 67 -103 67 -33 0 -39 17 -30 93 53 473 320 959 693 1261 303 245
626 387 990 436 50 6 97 13 105 15 41 10 394 -5 475 -20z m-2197 -1841 c69
-48 68 -162 -2 -208 -36 -23 -111 -21 -147 5 -60 42 -61 152 -2 198 32 26 117
29 151 5z m3915 -5 c37 -29 54 -88 38 -138 -16 -55 -52 -81 -110 -81 -72 1
-111 42 -111 120 0 46 21 94 47 109 32 18 108 13 136 -10z"/>
<path d="M2350 4434 c-14 -2 -65 -9 -115 -15 -218 -27 -481 -115 -687 -230
-181 -102 -407 -293 -542 -458 -218 -267 -370 -608 -419 -940 -13 -84 -12 -93
2 -98 53 -17 74 -29 105 -64 57 -63 63 -177 12 -244 -27 -35 -91 -75 -121 -75
-11 0 -14 -7 -11 -22 3 -13 10 -57 16 -98 92 -609 506 -1162 1074 -1434 540
-260 1142 -261 1673 -4 397 192 709 498 901 883 88 178 154 381 181 562 16
106 15 110 -20 118 -17 4 -50 26 -74 48 -69 67 -81 152 -33 238 21 39 90 89
121 89 18 0 19 5 13 63 -21 189 -85 403 -178 591 -299 611 -871 1011 -1550
1085 -91 10 -292 13 -348 5z m392 -80 c290 -40 571 -145 796 -296 360 -242
634 -609 754 -1008 31 -106 68 -284 59 -293 -14 -14 -27 17 -45 111 -73 396
-326 810 -655 1071 -210 167 -468 293 -721 352 -428 101 -863 48 -1265 -154
-488 -244 -856 -728 -964 -1266 -23 -112 -28 -128 -42 -114 -6 6 0 54 15 124
90 427 320 803 656 1075 327 264 737 410 1162 413 76 1 188 -6 250 -15z m-152
-364 c0 -18 -7 -20 -70 -20 l-70 0 0 -40 0 -40 65 0 c58 0 65 -2 65 -20 0 -18
-7 -20 -65 -20 l-65 0 0 -40 0 -40 70 0 c63 0 70 -2 70 -20 0 -19 -7 -20 -90
-20 l-90 0 0 140 0 140 90 0 c83 0 90 -1 90 -20z m237 -100 c12 -58 23 -111
25 -119 2 -7 28 35 58 93 37 70 61 106 72 106 9 0 19 -3 21 -7 7 -12 -130
-258 -143 -257 -5 1 -16 2 -23 3 -9 0 -23 46 -40 130 -32 154 -33 164 -9 159
13 -2 22 -27 39 -108z m-538 74 c51 -43 66 -134 31 -192 -23 -38 -63 -57 -136
-65 l-51 -6 -12 112 c-7 62 -15 124 -18 139 -6 30 5 34 99 37 47 1 61 -3 87
-25z m821 -34 c0 -10 -34 -161 -51 -222 -7 -29 -15 -38 -30 -38 -17 0 -20 5
-16 23 4 12 18 73 32 135 23 95 30 112 46 112 10 0 19 -4 19 -10z m-1200 -72
c12 -40 28 -93 36 -117 19 -61 18 -78 -8 -84 -17 -5 -41 12 -116 81 -54 49
-92 78 -89 67 12 -38 57 -189 57 -191 0 -1 -9 -4 -20 -7 -16 -4 -22 4 -34 47
-9 28 -26 87 -39 131 -25 82 -23 95 15 95 9 0 55 -36 101 -80 47 -44 87 -80
90 -80 3 0 -8 43 -24 96 -29 97 -30 114 -4 114 9 0 22 -27 35 -72z m1396 24
c7 -4 14 -64 18 -149 6 -139 6 -143 -14 -143 -17 0 -20 7 -20 38 0 38 -1 39
-56 56 l-56 18 -28 -27 c-18 -18 -35 -25 -45 -21 -18 7 -15 11 108 164 57 70
70 80 93 64z m-1706 -73 c0 -4 -27 -18 -60 -32 -33 -15 -60 -28 -60 -30 0 -2
5 -18 11 -36 13 -36 26 -38 80 -10 40 20 69 20 69 -1 0 -6 -27 -22 -59 -36
l-60 -26 17 -37 c9 -20 17 -37 18 -39 0 -1 27 9 59 23 55 25 85 27 85 7 0 -7
-91 -53 -156 -79 -12 -4 -118 231 -112 249 3 7 38 26 79 43 69 30 88 31 89 4z
m2006 -47 c14 -9 -57 -175 -89 -209 -27 -30 -84 -31 -121 -2 -20 16 -26 29
-26 60 0 37 2 39 20 29 11 -6 20 -19 20 -28 0 -41 49 -55 82 -25 10 9 18 19
18 23 0 16 70 160 77 160 5 0 13 -4 19 -8z m-2221 -173 c25 -146 24 -158 -13
-159 -17 0 -221 173 -218 185 7 28 43 11 118 -56 45 -39 83 -68 85 -63 2 5 -6
56 -16 114 -18 96 -18 106 -4 117 9 7 18 11 20 9 2 -2 15 -68 28 -147z m2400
80 c48 -28 71 -47 68 -55 -7 -20 -17 -18 -77 16 l-53 30 -15 -22 c-8 -13 -18
-28 -21 -35 -5 -7 13 -23 48 -43 30 -17 55 -36 55 -41 0 -22 -31 -18 -79 10
l-51 30 -19 -38 -20 -38 47 -26 c70 -40 73 -42 66 -61 -6 -14 -14 -12 -73 20
-104 57 -102 45 -26 178 37 64 69 116 72 116 3 0 38 -19 78 -41z m-2654 -417
c3 -34 12 -69 20 -78 21 -26 73 -44 124 -44 63 0 56 -16 -11 -24 -64 -7 -108
-27 -120 -53 -4 -10 -10 -45 -13 -78 -4 -44 -10 -60 -21 -60 -11 0 -17 17 -21
64 -8 86 -40 117 -128 127 -33 3 -59 10 -56 14 3 4 32 10 66 12 54 4 66 8 90
36 24 27 29 41 29 85 0 30 3 57 7 61 17 16 28 -5 34 -62z m2743 8 c10 -89 42
-122 125 -128 34 -2 63 -8 66 -12 2 -4 -24 -10 -58 -14 -98 -10 -135 -52 -136
-153 -1 -31 -5 -43 -16 -43 -11 0 -15 12 -15 45 0 57 -21 109 -52 128 -12 9
-49 19 -80 22 -71 9 -76 25 -9 25 27 0 61 4 75 10 39 15 66 66 66 128 0 37 4
52 14 52 9 0 16 -19 20 -60z m-1343 -160 c4 -58 7 -159 8 -226 l1 -120 61 -18
c52 -16 81 -18 202 -12 78 4 163 9 189 12 39 5 49 3 54 -11 4 -9 3 -20 -2 -25
-5 -5 -61 -12 -124 -16 -63 -4 -130 -12 -148 -18 -32 -11 -32 -12 -14 -31 32
-35 66 -117 70 -173 4 -44 7 -52 21 -47 9 4 203 11 431 16 228 5 445 14 483
19 37 6 126 10 197 10 l130 0 0 -29 c0 -27 -3 -29 -47 -35 -103 -14 -204 -24
-338 -36 -77 -6 -156 -16 -175 -20 -19 -5 -80 -12 -135 -15 -55 -4 -110 -9
-122 -11 l-21 -6 20 -49 c19 -45 20 -54 7 -91 -17 -52 -41 -83 -81 -102 -46
-23 -102 -20 -146 8 -64 40 -89 98 -72 170 l9 39 -67 -7 c-37 -3 -77 -6 -88
-6 -14 0 -31 -15 -49 -42 -55 -84 -119 -135 -205 -165 -40 -15 -132 -17 -158
-5 -9 5 -38 19 -63 31 -54 26 -121 89 -151 142 -21 37 -22 38 -97 44 -42 3
-88 8 -103 10 -26 4 -26 4 -21 -50 7 -68 0 -93 -34 -130 -39 -41 -66 -55 -111
-55 -47 0 -89 20 -122 57 -22 24 -25 38 -25 102 0 51 4 76 13 79 6 2 12 9 12
16 0 14 -63 26 -136 26 -24 0 -63 4 -86 10 -24 5 -104 14 -178 21 -124 11
-191 18 -338 35 -50 6 -53 7 -50 33 l3 26 150 -1 c158 -2 717 -18 943 -28 131
-6 132 -6 132 16 0 48 45 160 77 192 l24 24 -32 11 c-18 6 -53 11 -79 11 -26
0 -82 3 -124 7 -71 5 -77 8 -74 27 3 18 9 21 53 19 28 -1 119 -5 203 -9 96 -4
157 -3 165 3 6 6 29 13 50 17 l37 7 0 183 c0 101 3 204 6 230 6 43 9 47 33 44
26 -3 26 -4 32 -108z m-1841 -918 c76 -388 229 -686 490 -956 167 -173 311
-278 525 -381 590 -285 1272 -238 1821 125 390 259 692 704 778 1150 20 100
33 137 46 124 13 -13 -30 -207 -74 -340 -357 -1067 -1577 -1578 -2591 -1084
-459 223 -800 615 -961 1106 -36 112 -77 300 -68 315 11 18 23 -2 34 -59z
m1301 -588 c5 -3 9 -27 9 -55 0 -37 -4 -49 -15 -49 -16 0 -19 5 -29 53 -4 18
-13 27 -26 27 -18 0 -20 -7 -20 -90 0 -53 5 -98 12 -110 17 -27 6 -33 -60 -33
-75 0 -88 7 -67 39 12 19 15 45 13 107 -3 74 -5 82 -23 82 -14 0 -22 -10 -28
-37 -14 -60 -47 -45 -47 20 0 40 11 50 55 55 48 6 213 -1 226 -9z m256 -1 c46
-22 73 -67 73 -123 0 -82 -60 -140 -145 -140 -85 0 -145 58 -145 140 0 107
114 172 217 123z m665 -10 c59 -29 72 -95 26 -127 -19 -14 -19 -15 18 -55 22
-25 33 -45 28 -51 -10 -9 -51 -14 -97 -12 -28 2 -31 5 -41 55 -4 15 -13 27
-21 27 -18 0 -19 -23 -3 -50 17 -27 6 -33 -60 -33 -74 0 -87 7 -67 36 21 30
21 164 -1 195 -12 18 -13 23 -2 27 48 16 178 10 220 -12z m313 13 c55 -23 61
-86 9 -86 -19 0 -28 8 -40 35 -11 27 -20 35 -40 35 -43 0 -24 -31 43 -70 85
-50 93 -58 93 -94 0 -53 -37 -80 -118 -84 -74 -3 -124 15 -149 55 -13 19 -12
24 6 42 27 27 52 18 76 -27 16 -30 26 -37 50 -37 22 0 30 5 30 18 0 13 -22 30
-70 55 -79 42 -102 73 -85 117 19 49 122 71 195 41z m-730 -18 c-14 -40 -17
-165 -5 -187 14 -28 65 -29 80 -2 16 30 13 153 -5 177 -19 28 -11 34 42 34 31
0 43 -4 43 -14 0 -8 -4 -17 -9 -20 -4 -3 -10 -43 -13 -89 -3 -46 -11 -93 -19
-104 -39 -63 -187 -54 -218 13 -6 14 -11 55 -11 92 -1 42 -6 74 -15 86 -22 29
-10 36 67 36 69 0 70 -1 63 -22z"/>
<path d="M2154 3888 c4 -35 9 -81 12 -104 l6 -41 40 7 c22 4 50 17 62 29 29
29 29 99 0 138 -18 24 -29 28 -74 31 l-53 3 7 -63z"/>
<path d="M3237 3785 l-38 -49 37 -13 c21 -7 39 -11 41 -9 2 2 3 30 1 62 l-3
59 -38 -50z"/>
<path d="M1790 2297 c-14 -7 -33 -29 -43 -50 -31 -61 1 -127 69 -141 64 -14
124 33 124 97 0 49 -13 73 -50 92 -35 18 -67 19 -100 2z"/>
<path d="M3080 2297 c-14 -7 -33 -29 -44 -50 -16 -34 -17 -42 -4 -75 19 -52
74 -79 129 -63 47 14 69 44 69 94 0 49 -13 73 -50 92 -35 18 -67 19 -100 2z"/>
<path d="M2133 1555 c-9 -25 3 -100 23 -141 21 -43 63 -60 65 -27 7 84 -27
183 -62 183 -11 0 -22 -7 -26 -15z"/>
<path d="M2817 1564 c-4 -4 -7 -29 -7 -56 0 -42 3 -48 20 -48 26 0 41 38 31
77 -7 27 -30 41 -44 27z"/>
</g>
</svg>
