<?xml version="1.0" standalone="no"?>
<!DOCTYPE svg PUBLIC "-//W3C//DTD SVG 20010904//EN"
 "http://www.w3.org/TR/2001/REC-SVG-20010904/DTD/svg10.dtd">
<svg version="1.0" xmlns="http://www.w3.org/2000/svg"
 width="300.000000pt" height="300.000000pt" viewBox="0 0 300.000000 300.000000"
 preserveAspectRatio="xMidYMid meet">
<metadata>
Created by potrace 1.10, written by Peter Selinger 2001-2011
</metadata>
<g transform="translate(0.000000,300.000000) scale(0.100000,-0.100000)"
fill="#000000" stroke="none">
<path d="M1298 2685 c-167 -32 -330 -95 -453 -178 -61 -40 -177 -135 -183
-149 -2 -5 -9 -5 -15 -1 -7 3 -9 3 -5 -2 4 -4 2 -13 -5 -19 -19 -16 -97 -113
-139 -172 -77 -110 -155 -310 -181 -466 -13 -78 -18 -90 -51 -121 -30 -29 -36
-41 -36 -76 0 -35 6 -47 40 -80 27 -26 40 -47 40 -65 0 -14 9 -66 20 -116 88
-394 371 -725 735 -858 172 -63 245 -76 430 -77 194 0 260 12 440 77 207 76
395 215 518 383 132 180 209 363 236 560 7 51 14 66 45 97 30 30 36 43 36 78
0 33 -6 48 -30 72 -40 39 -50 60 -50 100 0 79 -79 314 -140 419 -55 92 -139
207 -188 255 -62 60 -216 176 -284 212 -76 41 -199 87 -303 112 -116 29 -361
37 -477 15z m457 -29 c387 -93 684 -340 835 -695 34 -79 75 -228 85 -308 7
-51 6 -51 -24 -58 -94 -20 -94 -170 0 -190 30 -7 31 -7 24 -58 -28 -219 -134
-452 -283 -623 -212 -244 -506 -386 -832 -401 -218 -10 -381 23 -575 116 -346
166 -615 537 -652 899 -5 55 -4 62 12 62 30 0 85 64 85 100 0 36 -55 100 -85
100 -16 0 -17 7 -12 63 31 300 228 624 494 808 135 93 334 173 493 199 87 14
354 5 435 -14z m-1375 -1106 c44 -44 11 -120 -52 -120 -17 0 -40 7 -50 17 -23
20 -24 80 -1 105 22 24 77 24 103 -2z m2344 4 c9 -9 16 -32 16 -54 0 -46 -21
-70 -61 -70 -58 0 -89 67 -53 118 18 26 74 30 98 6z"/>
<path d="M1278 2640 c-236 -49 -430 -153 -593 -314 -170 -170 -279 -376 -324
-612 l-18 -92 31 -13 c37 -17 76 -72 76 -108 0 -39 -36 -90 -74 -106 l-33 -14
17 -93 c56 -293 209 -539 443 -714 456 -340 1071 -309 1489 75 196 180 314
406 362 693 6 35 5 38 -29 54 -88 41 -85 177 4 214 29 12 31 15 25 49 -47 282
-159 499 -352 683 -168 160 -371 263 -600 303 -119 21 -314 18 -424 -5z m512
-54 c339 -93 601 -322 748 -654 32 -73 72 -216 72 -260 0 -40 -17 -15 -25 35
-17 119 -110 337 -187 436 -127 166 -250 269 -413 347 -168 80 -301 111 -480
111 -293 0 -547 -101 -758 -301 -52 -49 -117 -123 -146 -165 -89 -129 -161
-302 -186 -447 -3 -21 -11 -38 -16 -38 -14 0 -4 59 27 167 62 216 200 421 379
563 154 121 315 191 545 234 14 2 97 3 185 1 134 -3 176 -8 255 -29z m-85 -21
c163 -30 342 -112 468 -214 65 -52 87 -75 87 -87 0 -8 5 -13 11 -11 6 1 14 -4
16 -10 7 -20 -89 -4 -110 18 -10 11 -21 19 -26 19 -12 0 -38 -32 -45 -55 -3
-11 -14 -25 -24 -31 -31 -20 -61 14 -68 77 -10 87 -35 100 -94 49 l-35 -30 -5
42 c-4 38 -8 43 -30 44 -14 0 -35 6 -47 12 -18 10 -26 8 -52 -14 l-31 -26 -10
26 c-19 51 -75 40 -65 -13 3 -14 8 -47 11 -73 6 -45 33 -88 55 -88 5 0 21 11
35 25 31 32 44 32 44 0 0 -23 31 -51 43 -39 3 3 13 1 23 -4 12 -6 27 -7 43 -1
20 8 30 5 55 -18 45 -41 95 -66 128 -65 22 0 38 -8 59 -33 34 -38 82 -54 105
-34 9 7 13 20 11 30 -3 9 4 24 15 33 11 9 18 22 15 29 -2 7 9 20 26 30 35 21
42 17 90 -56 77 -118 117 -208 152 -346 13 -51 31 -101 40 -111 14 -16 14 -18
0 -23 -27 -11 -55 -70 -55 -117 0 -48 22 -90 60 -117 l23 -16 -21 -8 c-14 -5
-25 -22 -32 -51 -35 -141 -58 -211 -96 -284 -160 -313 -428 -518 -773 -589
-88 -19 -288 -21 -371 -5 -157 30 -299 86 -420 164 -56 37 -178 137 -179 147
-1 3 -21 27 -47 54 -105 113 -192 280 -234 450 -12 50 -29 98 -38 108 -14 16
-13 20 10 45 57 61 57 143 0 204 -23 25 -24 29 -10 45 9 10 26 58 38 106 24
96 66 206 107 277 43 76 117 170 133 169 10 0 11 -2 3 -6 -7 -2 -13 -15 -13
-27 0 -24 70 -97 117 -121 24 -13 29 -12 45 2 11 10 18 30 18 52 0 27 3 32 10
21 5 -8 10 -11 10 -6 0 5 9 1 20 -9 17 -16 25 -17 58 -7 21 7 47 21 57 32 10
11 26 20 36 20 10 0 24 9 32 20 12 18 18 19 46 9 29 -10 35 -9 53 9 l21 21
-24 72 c-28 84 -51 105 -77 73 -13 -15 -23 -19 -37 -13 -38 14 -55 9 -75 -23
-11 -18 -20 -27 -20 -19 0 23 -84 8 -120 -23 -17 -14 -38 -26 -46 -26 -16 0
-38 -46 -28 -61 3 -5 -4 -9 -15 -9 -11 0 -23 5 -26 10 -4 6 -10 8 -15 5 -4 -3
-12 1 -18 8 -26 31 176 198 325 269 227 107 442 137 678 93z m-6 -244 l14 -72
32 63 c30 57 55 84 55 60 0 -21 -83 -153 -94 -149 -10 3 -23 47 -40 142 -6 28
-4 36 6 33 7 -3 19 -37 27 -77z m168 35 c-3 -8 -11 -41 -17 -74 -7 -32 -16
-65 -20 -73 -19 -30 -20 3 -4 80 12 56 22 81 32 81 8 0 12 -6 9 -14z m-713
-63 c10 -38 20 -74 23 -80 2 -7 -2 -16 -11 -19 -10 -4 -34 11 -68 44 -29 28
-54 49 -56 47 -2 -2 4 -28 14 -59 10 -31 15 -59 11 -63 -11 -10 -14 -3 -41 80
-33 105 -17 112 65 31 32 -32 59 -56 59 -53 0 3 -9 32 -20 64 -24 68 -24 75
-7 75 7 0 20 -29 31 -67z m830 35 c3 -7 7 -50 10 -96 4 -62 2 -82 -6 -80 -7 3
-15 15 -18 28 -8 34 -55 48 -81 24 -41 -37 -29 -2 22 66 54 71 66 80 73 58z
m-1024 -38 c0 -5 -16 -16 -35 -24 -35 -15 -40 -22 -29 -50 5 -13 10 -13 40 1
25 12 37 14 45 6 9 -9 1 -15 -29 -24 -37 -11 -40 -14 -30 -33 6 -12 12 -22 13
-24 2 -2 20 4 40 12 44 19 45 19 45 6 0 -14 -91 -53 -101 -43 -4 4 -21 38 -37
75 l-31 68 42 19 c48 22 67 25 67 11z m1183 -95 c-33 -70 -51 -83 -90 -69 -20
7 -29 17 -31 37 -4 33 10 36 23 5 20 -46 44 -34 76 38 20 44 34 63 40 57 7 -7
1 -30 -18 -68z m-1314 -24 c14 -90 14 -111 -2 -111 -14 0 -130 94 -135 110 -8
22 23 7 71 -35 28 -24 52 -43 53 -42 2 2 -3 32 -10 67 -8 36 -12 68 -9 73 12
19 21 1 32 -62z m1466 16 c33 -25 9 -31 -29 -8 l-35 22 -11 -21 c-14 -25 -9
-34 30 -50 21 -9 28 -16 21 -23 -7 -7 -18 -5 -35 7 -32 21 -39 20 -54 -4 -11
-18 -8 -22 29 -41 26 -13 38 -24 32 -30 -10 -10 -107 38 -101 50 2 3 20 36 41
73 38 67 39 68 65 54 15 -8 36 -21 47 -29z m-1880 -874 c24 -139 94 -313 175
-434 66 -98 230 -255 330 -315 96 -57 233 -115 330 -139 36 -9 130 -19 210
-22 208 -8 333 17 515 102 213 100 388 267 500 478 48 90 100 235 110 310 4
26 11 50 16 53 16 9 10 -49 -14 -136 -109 -393 -408 -689 -802 -797 -91 -25
-116 -27 -275 -28 -188 0 -247 9 -392 61 -276 99 -507 311 -634 581 -54 117
-109 323 -85 323 5 0 13 -17 16 -37z"/>
<path d="M1433 2406 c-18 -22 -20 -23 -48 -8 -35 18 -110 19 -131 1 -20 -16
-9 -155 15 -182 19 -22 76 -17 122 10 23 14 30 14 44 3 19 -16 102 -15 122 1
20 17 16 37 -9 45 -19 6 -19 7 -5 16 20 10 22 39 6 55 -9 9 -8 16 4 28 31 30
1 55 -70 55 -21 0 -38 -8 -50 -24z m117 -11 c0 -11 -11 -15 -40 -15 -37 0 -40
-2 -40 -26 0 -25 2 -26 40 -21 30 4 40 2 40 -9 0 -10 -12 -14 -40 -14 -36 0
-40 -2 -40 -25 0 -23 4 -25 45 -25 25 0 45 -4 45 -10 0 -6 -26 -10 -59 -10
l-60 0 0 77 c0 42 2 80 5 85 3 4 27 8 55 8 37 0 49 -4 49 -15z m-167 -27 c19
-22 23 -79 7 -108 -9 -17 -65 -40 -96 -40 -7 0 -16 33 -23 75 -14 98 -15 93
17 98 42 7 75 -2 95 -25z"/>
<path d="M1290 2356 c0 -7 3 -34 6 -60 6 -39 10 -46 30 -46 48 0 69 54 38 98
-17 25 -74 32 -74 8z"/>
<path d="M644 1990 c-9 -15 -10 -20 -13 -40 -2 -18 -53 -60 -72 -60 -10 0 -20
-4 -23 -8 -3 -5 18 -5 45 -2 54 7 65 17 75 67 8 40 2 63 -12 43z"/>
<path d="M678 1955 c5 -56 28 -77 79 -73 l38 4 -34 10 c-26 7 -41 21 -58 54
-13 24 -24 45 -26 46 -1 1 0 -17 1 -41z"/>
<path d="M2279 1953 c-18 -34 -33 -50 -56 -58 -50 -16 -47 -22 7 -15 27 4 53
10 57 13 6 7 22 107 17 107 -1 0 -12 -21 -25 -47z"/>
<path d="M2326 1972 c1 -15 2 -35 3 -44 2 -28 31 -48 69 -48 l37 1 -37 19
c-25 14 -40 31 -48 55 -14 44 -26 52 -24 17z"/>
<path d="M1468 1900 c-4 -14 -8 -65 -8 -115 0 -49 -4 -95 -8 -101 -17 -26 -56
-34 -158 -34 -59 0 -105 -2 -103 -4 2 -2 50 -9 105 -14 80 -8 110 -7 140 3
l39 13 3 71 c4 109 -1 211 -10 181z"/>
<path d="M1519 1913 c-2 -7 -3 -70 -1 -141 l3 -128 42 -11 c28 -8 69 -8 122
-3 44 5 94 10 110 11 17 2 -27 5 -96 8 -85 4 -131 10 -142 20 -14 11 -17 33
-18 110 -1 93 -11 159 -20 134z"/>
<path d="M570 1846 c26 -9 41 -24 61 -62 28 -55 49 -62 60 -22 11 42 37 72 72
85 l32 11 -42 1 c-52 1 -73 -18 -73 -69 0 -54 -16 -59 -24 -8 -10 59 -30 78
-80 77 l-41 -1 35 -12z"/>
<path d="M2215 1848 c33 -12 54 -36 72 -83 l11 -30 1 46 c1 57 -20 79 -75 78
l-39 -1 30 -10z"/>
<path d="M2353 1852 c-17 -10 -35 -63 -28 -80 3 -8 0 -22 -7 -31 -12 -14 -11
-14 4 -3 9 8 22 29 29 49 8 26 21 40 53 54 l41 19 -40 0 c-22 0 -45 -4 -52 -8z"/>
<path d="M1789 1616 c-2 -2 -35 -5 -74 -7 -87 -3 -91 -6 -66 -33 25 -26 41
-68 41 -106 l0 -29 83 5 c117 6 578 24 637 24 34 0 50 -4 50 -13 0 -9 -46 -18
-167 -31 -367 -38 -354 -36 -338 -59 23 -33 18 -72 -14 -106 -39 -42 -82 -42
-123 -1 -27 27 -30 36 -26 73 l5 42 -58 -3 c-46 -3 -59 -8 -64 -22 -10 -32
-91 -98 -134 -110 -73 -19 -169 25 -207 95 -16 30 -24 35 -54 35 -19 0 -52 3
-72 6 l-38 7 15 -31 c11 -21 13 -37 6 -55 -13 -34 -58 -67 -91 -67 -64 0 -110
82 -76 135 9 13 16 26 16 28 0 2 -37 7 -82 11 -233 18 -398 40 -398 53 0 9 15
13 47 13 64 0 564 -19 634 -24 l56 -4 12 51 c6 28 23 66 37 84 l25 33 -93 -1
-93 -1 60 -12 c67 -13 69 -19 37 -86 l-17 -35 -175 5 c-96 3 -256 5 -355 5
-177 0 -180 0 -183 -22 -5 -34 25 -43 221 -64 242 -25 227 -20 227 -74 0 -75
63 -123 137 -103 37 10 62 42 72 91 5 25 12 33 34 35 21 3 39 -8 85 -52 60
-57 119 -86 176 -86 49 0 130 43 167 89 28 35 38 41 64 39 24 -2 31 -8 33 -30
2 -15 16 -41 32 -58 23 -25 36 -30 75 -30 63 0 105 39 105 99 0 22 4 42 9 45
5 4 106 17 225 31 216 24 256 34 256 59 0 37 -22 39 -313 32 -155 -3 -315 -9
-354 -13 l-73 -6 -14 35 c-8 19 -18 46 -21 60 -6 24 -4 25 57 34 35 5 58 12
52 16 -6 4 -13 6 -15 4z"/>
<path d="M1380 1545 l-23 -25 41 0 c38 0 42 2 42 25 0 18 -5 25 -18 25 -10 0
-29 -11 -42 -25z"/>
<path d="M1450 1546 c0 -23 22 -41 34 -29 3 4 6 17 6 30 0 16 -6 23 -20 23
-14 0 -20 -7 -20 -24z"/>
<path d="M1500 1546 c0 -47 30 -45 45 2 5 19 3 22 -19 22 -21 0 -26 -5 -26
-24z"/>
<path d="M1560 1546 c0 -20 6 -24 35 -28 46 -5 50 0 23 29 -29 31 -58 30 -58
-1z"/>
<path d="M1075 1378 c-41 -23 -47 -66 -15 -98 28 -28 64 -25 89 6 27 34 26 50
-4 79 -27 28 -40 30 -70 13z m42 -39 c14 -14 6 -39 -12 -39 -18 0 -28 17 -21
35 6 18 18 19 33 4z"/>
<path d="M1843 1373 c-32 -28 -36 -56 -12 -86 25 -32 61 -35 89 -7 54 54 -20
143 -77 93z m53 -38 c4 -8 0 -22 -7 -31 -12 -14 -14 -14 -26 2 -9 13 -10 21
-2 31 15 17 28 17 35 -2z"/>
<path d="M1052 983 c-32 -6 -56 -46 -43 -71 5 -10 17 -24 25 -32 9 -7 16 -25
16 -40 0 -15 8 -34 18 -43 36 -33 112 -13 112 29 0 20 17 17 29 -5 18 -33 74
-53 122 -42 23 5 49 16 57 25 13 13 18 12 43 -6 33 -25 100 -26 134 -4 17 11
24 12 39 0 13 -9 62 -13 187 -12 l169 0 21 26 c14 19 19 34 14 52 -3 14 -8 38
-10 55 -8 67 -95 96 -164 54 -31 -18 -35 -19 -51 -4 -19 17 -92 22 -200 13
-30 -2 -70 0 -88 6 -27 9 -39 7 -63 -7 -28 -15 -32 -15 -54 -1 -18 12 -36 14
-67 10 -52 -8 -84 -9 -163 -3 -33 3 -70 3 -83 0z m316 -45 c32 -31 31 -90 -4
-117 -59 -46 -144 -10 -144 62 0 33 25 67 60 80 23 9 63 -2 88 -25z m579 11
c7 -6 13 -18 13 -25 0 -21 -27 -17 -44 7 -9 14 -21 19 -31 15 -22 -8 -11 -22
35 -46 54 -27 67 -53 40 -80 -37 -37 -150 -18 -150 25 0 30 24 27 50 -5 18
-23 32 -31 44 -27 28 11 18 26 -35 52 -44 23 -50 29 -47 53 5 46 83 66 125 31z
m-747 -24 c0 -40 -15 -47 -24 -10 -4 14 -13 25 -21 25 -19 0 -21 -100 -3 -118
15 -15 -9 -25 -49 -20 -19 2 -27 8 -24 18 3 8 7 39 9 68 4 48 2 53 -15 50 -10
-2 -19 -13 -21 -26 -5 -35 -22 -26 -22 13 l0 35 85 0 85 0 0 -35z m295 -32 c0
-58 3 -68 19 -71 10 -2 22 2 27 10 12 18 11 95 -1 103 -20 12 -9 25 21 25 26
0 30 -3 23 -17 -4 -10 -9 -40 -12 -68 -5 -63 -15 -75 -61 -75 -58 0 -81 22
-81 80 0 27 -4 52 -10 55 -22 14 -8 25 33 25 l42 0 0 -67z m263 51 c26 -18 28
-41 7 -64 -13 -15 -13 -19 6 -39 26 -27 14 -44 -27 -39 -20 2 -30 10 -34 27
-3 14 -11 26 -18 29 -14 4 -16 -24 -2 -33 19 -11 -1 -25 -35 -25 -34 0 -54 14
-35 25 13 8 13 102 0 110 -25 15 -5 25 53 25 40 0 70 -5 85 -16z"/>
<path d="M1281 936 c-13 -15 -10 -34 11 -88 11 -30 35 -37 44 -14 7 19 -13 91
-30 105 -10 8 -16 8 -25 -3z"/>
<path d="M1684 926 c-9 -23 0 -51 16 -51 10 0 16 12 18 33 2 24 -1 32 -13 32
-8 0 -18 -6 -21 -14z"/>
<path d="M1942 2272 l-23 -32 23 -9 c25 -9 33 6 26 52 -3 21 -4 20 -26 -11z"/>
</g>
</svg>
